<svg version="1.0" xmlns="http://www.w3.org/2000/svg" width="266.667" height="266.667" viewBox="0 0 200 200"><path d="M85 53v32H21v30h64v64h30v-64h64V85h-64V21H85z"/><path d="m128.2 39.4-8.2 8.1v17.7l9.9-9.2c13.4-12.4 15.3-16.8 9.8-22.8-2.6-2.8-1.8-3.2-11.5 6.2m-71.1-5.3c-5.3 2.2-5.2 2.7 1.8 9.8 3.6 3.7 9.8 10.1 13.6 14.2l7 7.4.3-8.8.3-8.7-4.1-4.8c-7.2-8.7-13.2-11.5-18.9-9.1m91.1 9c-1.7 2.3-7.2 7.8-12.2 12.1-11.4 9.9-15.9 16-16 21V80h5.4c5.1 0 5.6-.2 7.5-3.4 1.2-1.9 6.4-7.3 11.7-12.1 13.2-12.2 14.7-15.9 9-22.8l-2.3-2.9zM44.5 44.6c-4.5 2.3-6.4 4.5-4.5 5.1.8.3 7.1 6.3 14 13.4C68.3 77.9 71 80 76.3 80H80v-5.5c0-5-.2-5.6-2.9-6.9-1.6-.9-7.1-6.1-12.3-11.7-12-13-14.4-14.4-20.3-11.3m116 10.5c-1.1 1.7-6.1 6.4-11.2 10.5-5 4.2-10.3 9.1-11.8 11l-2.6 3.4h17.6l6.2-5.6c7.3-6.5 9.3-10.9 7.4-16.7-1.8-5.4-3.3-6.1-5.6-2.6m-124 2.8c-5.7 2.4-6 4.6-1.3 9.3 2.3 2.4 5.8 6.3 7.6 8.6l3.3 4.2h18l-8.3-9.5c-5.2-6-9.8-10.3-12.3-11.5-4.6-2.2-4.3-2.2-7-1.1m5.2 67.2C32.8 133 31 138.2 35 144.8l2.1 3.4 2.8-3.9c1.6-2.1 5.8-6.3 9.5-9.2 7.3-5.7 14.6-12.8 14.6-14.2 0-.5-3.7-.9-8.3-.9h-8.3zm25-1.4c-1.5 2.1-7.1 8-12.6 13.1-11.9 11-13 13.7-8.7 20.2 3.2 4.9 2.7 4.9 6.1-.1 1.6-2.2 7-7.6 12-11.9 11.3-9.6 16.5-16.4 16.5-21.4V120h-5.4c-5 0-5.5.2-7.9 3.7m53.3 1.8c0 5 .2 5.6 2.9 6.9 1.6.9 7.1 6.1 12.3 11.7 12.8 13.9 16.6 15.4 23.2 9.3l2.8-2.6-2.9-1.7c-1.5-1-4.8-4-7.3-6.6-2.5-2.7-7-7.6-10-10.8-7.9-8.6-12.5-11.7-17.2-11.7H120zm15.7-4.9c.6.3 4.7 4.6 9 9.6 10.8 12.6 16.9 15 22.5 9.1l2.3-2.5-2.7-1.9c-1.5-1.1-5-4.9-7.8-8.4l-5.2-6.5-9.6.1c-5.4 0-9.2.3-8.5.5m-66.4 24.2c-12.9 12.2-14.7 16.7-8.9 22.1l2.2 2 8.7-8.2 8.8-8.2-.3-8.7-.3-8.6zm50.7-1.3v8.7l5 5.8c7.7 8.9 14 10.9 20.8 6.4l2.4-1.6-4.2-3.5c-2.2-2-7.2-7.3-11-11.8-3.8-4.6-8.3-9.3-10-10.5l-3-2.1z"/></svg>
